<svg width="18" height="18" viewBox="0 0 18 18" fill="none" xmlns="http://www.w3.org/2000/svg">
<g clip-path="url(#clip0_29_989)">
<path d="M9.06812 0.10791C7.38698 0.10791 5.74359 0.606426 4.34577 1.54042C2.94795 2.47441 1.85849 3.80193 1.21514 5.3551C0.571798 6.90827 0.40347 8.61734 0.731444 10.2662C1.05942 11.915 1.86897 13.4296 3.05771 14.6183C4.24646 15.8071 5.76101 16.6166 7.40985 16.9446C9.05869 17.2726 10.7678 17.1042 12.3209 16.4609C13.8741 15.8175 15.2016 14.7281 16.1356 13.3303C17.0696 11.9324 17.5681 10.2891 17.5681 8.60791C17.5657 6.35432 16.6694 4.19373 15.0758 2.60019C13.4823 1.00666 11.3217 0.110348 9.06812 0.10791ZM9.06812 15.6912C7.66717 15.6912 6.29768 15.2758 5.13283 14.4975C3.96798 13.7192 3.06009 12.6129 2.52397 11.3186C1.98785 10.0243 1.84758 8.60005 2.12089 7.22602C2.3942 5.85199 3.06882 4.58986 4.05945 3.59924C5.05007 2.60862 6.3122 1.93399 7.68623 1.66068C9.06026 1.38737 10.4845 1.52764 11.7788 2.06376C13.0731 2.59988 14.1794 3.50777 14.9577 4.67262C15.736 5.83747 16.1515 7.20696 16.1515 8.60791C16.1494 10.4859 15.4024 12.2864 14.0745 13.6143C12.7466 14.9422 10.9461 15.6892 9.06812 15.6912Z" fill="#4977E5"/>
<path d="M9.0681 4.35791C8.88024 4.35791 8.70007 4.43254 8.56723 4.56538C8.43439 4.69821 8.35976 4.87838 8.35976 5.06624V8.12978L5.97197 9.62579C5.81229 9.72554 5.69878 9.88464 5.6564 10.0681C5.61402 10.2515 5.64626 10.4443 5.74601 10.604C5.84577 10.7637 6.00487 10.8772 6.18832 10.9196C6.37177 10.9619 6.56454 10.9297 6.72422 10.83L9.44422 9.12995C9.54699 9.06556 9.63151 8.97586 9.68968 8.86945C9.74784 8.76304 9.77772 8.64347 9.77643 8.5222V5.06624C9.77643 4.87838 9.7018 4.69821 9.56897 4.56538C9.43613 4.43254 9.25596 4.35791 9.0681 4.35791Z" fill="#4977E5"/>
</g>
<defs>
<clipPath id="clip0_29_989">
<rect width="17" height="17" fill="white" transform="translate(0.568115 0.10791)"/>
</clipPath>
</defs>
</svg>
