<svg width="138" height="50" viewBox="0 0 138 50" fill="none" xmlns="http://www.w3.org/2000/svg">
<g clip-path="url(#clip0_5_1618)">
<path d="M29.5127 33.9481C26.4935 33.9481 24.9917 32.4455 24.9917 29.3934C24.9917 25.8355 27.126 22.3876 31.3308 22.3876C33.0379 22.3876 34.6185 22.9093 35.7885 23.7158L36.5469 19.462C35.5195 18.5289 33.1627 17.7696 30.6034 17.7696C22.6699 17.7696 19.3484 23.8751 19.3484 29.7891C19.3484 35.0393 22.605 38.4239 28.2167 38.4239C30.6351 38.4239 32.801 37.8384 33.8601 37.0319V32.6826C32.7377 33.5046 30.9985 33.9481 29.5127 33.9481ZM36.1519 33.6478C35.646 36.5101 36.8793 38.4239 40.1669 38.4239C41.5267 38.4239 42.8227 38.0282 43.2971 37.5359L43.6605 34.4681C43.4236 34.6102 42.8838 34.7684 42.4277 34.7684C41.5584 34.7684 41.3054 34.3099 41.5267 33.3769L44.6563 16.0124H39.2976L36.1519 33.6478ZM51.817 38.4239C54.5521 38.4239 56.7336 37.5697 57.6662 36.6367V32.7147C56.702 33.5845 54.8678 34.3754 52.784 34.3754C51.1246 34.3754 50.5554 33.806 50.4605 32.7464C56.4989 32.778 59.7555 30.8959 59.7555 27.307C59.7555 24.6505 57.8271 22.5941 53.9541 22.5941C48.3107 22.5941 45.0219 27.0067 45.0219 32.0853C45.0219 36.2765 47.5668 38.4273 51.8187 38.4273L51.817 38.4239ZM53.7771 26.2307C54.5838 26.2307 55.1053 26.7369 55.1053 27.5589C55.1053 28.9665 53.6195 29.7575 50.6314 29.7575C51.027 27.9702 52.2597 26.2307 53.7771 26.2307ZM73.3313 38.4239C74.6589 38.4239 75.9871 37.9965 76.4298 37.5359L76.7932 34.4681C76.5563 34.6102 76.0503 34.7684 75.6547 34.7684C74.7699 34.7684 74.6589 34.3099 74.8015 33.3769L76.0503 26.2285L77.1882 22.9537H73.5366L72.4775 24.4718C71.4028 23.0487 69.6796 22.6529 68.0197 22.6529C63.3095 22.6529 60.5589 26.7652 60.5589 31.9837C60.5589 35.9373 62.5822 38.4223 65.9648 38.4223C67.7828 38.4223 68.9845 37.7262 69.9171 36.6667C70.2805 37.5048 71.2763 38.4223 73.3313 38.4223V38.4239ZM67.9881 34.4387C66.6921 34.4387 65.9015 33.6161 65.9015 31.9238C65.9015 29.3617 67.0239 26.8002 69.4427 26.8002C69.7906 26.8002 70.1856 26.8318 70.549 27.0372L69.3479 34.1379C68.9845 34.3438 68.5257 34.4387 67.9881 34.4387ZM85.0291 27.6383C85.6771 27.2426 86.3095 27.0688 87.0047 27.0688C88.2064 27.0688 88.7118 27.7649 88.38 29.4883L86.8149 38.0598H92.1903L93.787 29.0298C94.5138 24.807 92.2852 22.5913 89.3292 22.5913C87.3847 22.5913 85.9778 23.3506 84.7606 25.0746L84.5237 22.9554H80.477L77.8528 38.0582H83.1955L85.0291 27.6383ZM99.4925 38.4239C100.852 38.4239 101.989 38.0282 102.481 37.5359L102.844 34.4681C102.486 34.6512 102.092 34.7537 101.69 34.7684C100.821 34.7684 100.631 34.3099 100.852 33.3769L102.749 22.9549H97.3743L95.4775 33.6456C94.956 36.4607 96.2048 38.4217 99.4925 38.4217V38.4239ZM97.2323 18.8309C97.2323 20.5232 98.4334 21.5983 100.521 21.5983C102.654 21.5983 103.777 20.5232 103.777 18.8309C103.777 17.1385 102.654 15.9846 100.521 15.9846C98.4334 15.9846 97.2323 17.1385 97.2323 18.8309ZM110.985 27.64C111.569 27.2631 112.25 27.0652 112.945 27.0705C114.162 27.0705 114.668 27.7665 114.336 29.4899L112.773 38.0598H118.148L119.745 29.0298C120.471 24.807 118.227 22.5913 115.271 22.5913C113.342 22.5913 111.92 23.3506 110.718 25.0746L110.481 22.9554H106.435L103.81 38.0582H109.154L110.985 27.64ZM128.784 34.4404C127.488 34.4404 126.713 33.6178 126.713 31.9255C126.713 29.3634 127.82 26.8019 130.238 26.8019C130.602 26.8019 130.997 26.8335 131.361 27.0389L130.144 34.1395C129.875 34.2822 129.367 34.4404 128.784 34.4404ZM125.465 45.3681C131.266 45.3681 134.317 42.917 134.918 38.299L135.486 34.0446L136.846 26.2324L138 22.9576H134.348L133.289 24.4757C132.199 23.0525 130.412 22.6568 128.816 22.6568C124.089 22.6568 121.37 26.8008 121.37 31.9876C121.37 35.9412 123.141 38.2663 126.524 38.2663C127.883 38.2663 129.037 37.9655 129.875 37.2067L129.812 37.7618C129.543 40.1657 128.405 41.2885 125.228 41.2885C124.105 41.2885 122.176 41.0515 121.181 40.6225L120.485 44.4023C121.465 45.0683 124.091 45.367 125.465 45.367V45.3681Z" fill="#051625"/>
<path fill-rule="evenodd" clip-rule="evenodd" d="M10.1482 10.6812C3.02525 17.7302 1.30706 28.7906 5.90407 37.7923C10.5155 46.794 20.3403 51.5746 30.0037 49.532C21.6036 48.4125 14.2476 43.149 10.2952 35.4167C6.3429 27.6844 6.28576 18.4573 10.1482 10.6812Z" fill="#0384E7"/>
<path fill-rule="evenodd" clip-rule="evenodd" d="M24.1173 2.07251C18.1844 6.3086 14.2481 12.9053 13.2645 20.258C12.2809 27.6106 14.3364 35.0538 18.9334 40.7879C12.2204 36.1583 8.66972 27.9886 9.76932 19.7584C10.8689 11.5282 16.4368 4.66123 24.1173 2.07251Z" fill="#52AEEE"/>
<path fill-rule="evenodd" clip-rule="evenodd" d="M17.4914 11.8614C26.3176 3.73719 39.5499 3.29816 48.8754 10.8173C45.1894 5.55219 39.2121 2.52664 32.9119 2.72313C26.6111 2.93515 20.8252 6.36921 17.4886 11.8614H17.4914Z" fill="#6FBCF4"/>
<path fill-rule="evenodd" clip-rule="evenodd" d="M8.18039 3.23755C8.09218 5.32562 6.46054 7.00463 4.43555 7.09566C6.4622 7.18613 8.09218 8.86569 8.18039 10.9532C8.2686 8.86569 9.8836 7.18613 11.9252 7.09566C9.8836 7.00463 8.2686 5.32562 8.18039 3.23755Z" fill="#0384E7"/>
<path fill-rule="evenodd" clip-rule="evenodd" d="M50.7113 0C50.6231 2.08807 48.9914 3.76708 46.9664 3.85811C48.9931 3.94858 50.6231 5.62814 50.7113 7.71566C50.7995 5.62814 52.415 3.94858 54.4561 3.85811C52.415 3.76708 50.7995 2.08807 50.7113 0Z" fill="#0384E7"/>
<path fill-rule="evenodd" clip-rule="evenodd" d="M48.7434 12.9353C48.6696 14.4633 47.4951 15.6739 46.0116 15.7494C47.4951 15.8099 48.6696 17.0204 48.7434 18.5479C48.8022 17.0204 49.9917 15.8099 51.4619 15.7494C49.9933 15.6739 48.8039 14.4633 48.7434 12.9353Z" fill="#0384E7"/>
<path fill-rule="evenodd" clip-rule="evenodd" d="M53.619 8.19971C53.5602 9.71276 52.3707 10.9383 50.9005 10.9988C52.369 11.0743 53.5585 12.2848 53.619 13.8129C53.6928 12.2848 54.8673 11.0743 56.3508 10.9988C54.8673 10.9383 53.6928 9.71276 53.619 8.19971Z" fill="#0384E7"/>
<path fill-rule="evenodd" clip-rule="evenodd" d="M29.9743 7.74609C29.9155 9.39513 28.6234 10.7111 27.0228 10.7866C28.6234 10.8477 29.9155 12.1787 29.9743 13.8277C30.0481 12.1787 31.3258 10.8477 32.9264 10.7866C31.3258 10.7111 30.0481 9.39513 29.9743 7.74609Z" fill="#52AEEE"/>
<path fill-rule="evenodd" clip-rule="evenodd" d="M22.7931 10.6506C22.7342 12.0427 21.6624 13.1483 20.3109 13.2077C21.6624 13.2682 22.7342 14.3733 22.7931 15.7642C22.8519 14.3722 23.9387 13.2666 25.2752 13.2077C23.9387 13.1472 22.8519 12.0421 22.7931 10.6506Z" fill="#52AEEE"/>
<path fill-rule="evenodd" clip-rule="evenodd" d="M3.09907 9.97021C3.02528 11.7097 1.67436 13.0868 0 13.1623C1.67436 13.2378 3.02528 14.6298 3.09907 16.3543C3.1723 14.6298 4.50879 13.2378 6.19758 13.1623C4.50879 13.0868 3.1723 11.7097 3.09907 9.97021Z" fill="#52AEEE"/>
</g>
<defs>
<clipPath id="clip0_5_1618">
<rect width="138" height="50" fill="white"/>
</clipPath>
</defs>
</svg>
